<svg xmlns="http://www.w3.org/2000/svg" xmlns:xlink="http://www.w3.org/1999/xlink" width="1900" zoomAndPan="magnify" viewBox="0 0 375 374.999991" height="1900" preserveAspectRatio="xMidYMid meet" version="1.0"><defs><g/></defs><g fill="#dc3c4d" fill-opacity="0.302"><g transform="translate(56.553671, 273.59554)"><g><path d="M 123.625 5.582031 C 123.894531 10.625 124.195312 14.339844 124.71875 16.472656 C 125.023438 18.640625 125.609375 19.664062 126.476562 19.542969 C 127.992188 19.328125 129.605469 16.671875 131.503906 11.320312 C 133.1875 6.003906 136.273438 -5.035156 140.515625 -21.984375 C 143.886719 -35.714844 146.976562 -48.300781 150.15625 -60.234375 C 153.183594 -71.707031 156.550781 -83.890625 160.070312 -96.539062 C 162.035156 -103 164.152344 -109.925781 166.425781 -117.316406 C 168.484375 -124.675781 170.726562 -132.285156 173.3125 -140.601562 C 176.023438 -149.597656 178.425781 -157.667969 180.542969 -164.597656 C 182.660156 -171.523438 184.25 -177.492188 185.746094 -182.5625 C 188.148438 -192.179688 189.585938 -199.230469 189.84375 -203.683594 C 190.003906 -205.695312 189.976562 -207.460938 189.730469 -209.191406 C 189.519531 -210.710938 189.121094 -211.980469 188.535156 -213 C 186.652344 -215.386719 184.953125 -216.472656 183.21875 -216.230469 C 181.484375 -215.984375 178.386719 -214.445312 173.769531 -211.144531 C 168.132812 -207.257812 160.628906 -199.351562 151.199219 -187.863281 C 141.363281 -176.09375 127.589844 -157.808594 109.4375 -132.9375 C 98.667969 -118.386719 90.480469 -107.515625 84.617188 -100.503906 C 78.597656 -93.027344 75.3125 -89.691406 74.539062 -90.46875 C 73.796875 -91.027344 73.335938 -92.730469 73.128906 -95.792969 C 72.699219 -98.828125 72.800781 -102.816406 72.996094 -107.707031 C 73.582031 -120.824219 73.542969 -132.085938 72.882812 -141.492188 C 72.035156 -150.652344 70.625 -155.976562 69.050781 -157.746094 C 66.578125 -159.605469 63.824219 -160.324219 60.605469 -159.648438 C 57.417969 -158.757812 54.816406 -156.847656 52.582031 -153.878906 C 50.78125 -150.976562 48.453125 -147.113281 46.089844 -141.921875 C 43.511719 -136.695312 40.835938 -130.574219 37.851562 -123.527344 C 32.625 -110.421875 26.871094 -94.808594 20.984375 -76.96875 C 14.695312 -58.847656 9.089844 -40.605469 3.789062 -21.742188 C -0.386719 -7.457031 -2.574219 2.128906 -3.230469 6.863281 C -3.636719 8.6875 -3.640625 10.234375 -3.488281 11.316406 C -3.246094 13.050781 -2.71875 13.640625 -1.421875 13.457031 C -0.988281 13.394531 1.1875 8.449219 5.046875 -1.816406 C 8.9375 -11.863281 13.417969 -23.980469 18.273438 -38.140625 C 27.550781 -64.855469 35.515625 -86.746094 42.390625 -103.839844 C 49.046875 -120.90625 53.273438 -130.117188 55.257812 -131.722656 C 56.433594 -132.769531 57.082031 -131.316406 57.382812 -127.601562 C 57.714844 -123.671875 57.726562 -114.171875 57.476562 -98.671875 C 57.175781 -88.246094 58.246094 -80.664062 60.277344 -75.648438 C 62.089844 -70.601562 65.117188 -67.933594 69.574219 -67.675781 C 73.191406 -67.082031 77.214844 -68.308594 81.617188 -71.578125 C 85.613281 -74.574219 91.753906 -81.179688 99.574219 -91.5625 C 103.699219 -96.78125 108.507812 -103.421875 114.03125 -111.269531 C 119.554688 -119.117188 126.195312 -128.449219 133.492188 -139.417969 C 139.386719 -147.757812 144.351562 -154.863281 148.542969 -161.199219 C 152.792969 -167.097656 156.488281 -172.257812 159.40625 -176.644531 C 164.929688 -184.492188 168.652344 -189.433594 170.945312 -191.96875 C 173.054688 -194.253906 174.449219 -195.332031 174.945312 -194.960938 C 175.222656 -194.558594 173.851562 -190.167969 171.109375 -181.386719 C 168.152344 -172.574219 164.511719 -162.339844 160.246094 -150.25 C 146.835938 -113.675781 137.210938 -83.160156 131.402344 -58.480469 C 125.597656 -33.800781 123.078125 -12.457031 123.625 5.582031 Z M 123.625 5.582031 "/></g></g></g><g fill="#dc3c4d" fill-opacity="0.502"><g transform="translate(61.963748, 268.722563)"><g><path d="M 123.625 5.582031 C 123.894531 10.625 124.195312 14.339844 124.71875 16.472656 C 125.023438 18.640625 125.609375 19.664062 126.476562 19.542969 C 127.992188 19.328125 129.605469 16.671875 131.503906 11.320312 C 133.1875 6.003906 136.273438 -5.035156 140.515625 -21.984375 C 143.886719 -35.714844 146.976562 -48.300781 150.15625 -60.234375 C 153.183594 -71.707031 156.550781 -83.890625 160.070312 -96.539062 C 162.035156 -103 164.152344 -109.925781 166.425781 -117.316406 C 168.484375 -124.675781 170.726562 -132.285156 173.3125 -140.601562 C 176.023438 -149.597656 178.425781 -157.667969 180.542969 -164.597656 C 182.660156 -171.523438 184.25 -177.492188 185.746094 -182.5625 C 188.148438 -192.179688 189.585938 -199.230469 189.84375 -203.683594 C 190.003906 -205.695312 189.976562 -207.460938 189.730469 -209.191406 C 189.519531 -210.710938 189.121094 -211.980469 188.535156 -213 C 186.652344 -215.386719 184.953125 -216.472656 183.21875 -216.230469 C 181.484375 -215.984375 178.386719 -214.445312 173.769531 -211.144531 C 168.132812 -207.257812 160.628906 -199.351562 151.199219 -187.863281 C 141.363281 -176.09375 127.589844 -157.808594 109.4375 -132.9375 C 98.667969 -118.386719 90.480469 -107.515625 84.617188 -100.503906 C 78.597656 -93.027344 75.3125 -89.691406 74.539062 -90.46875 C 73.796875 -91.027344 73.335938 -92.730469 73.128906 -95.792969 C 72.699219 -98.828125 72.800781 -102.816406 72.996094 -107.707031 C 73.582031 -120.824219 73.542969 -132.085938 72.882812 -141.492188 C 72.035156 -150.652344 70.625 -155.976562 69.050781 -157.746094 C 66.578125 -159.605469 63.824219 -160.324219 60.605469 -159.648438 C 57.417969 -158.757812 54.816406 -156.847656 52.582031 -153.878906 C 50.78125 -150.976562 48.453125 -147.113281 46.089844 -141.921875 C 43.511719 -136.695312 40.835938 -130.574219 37.851562 -123.527344 C 32.625 -110.421875 26.871094 -94.808594 20.984375 -76.96875 C 14.695312 -58.847656 9.089844 -40.605469 3.789062 -21.742188 C -0.386719 -7.457031 -2.574219 2.128906 -3.230469 6.863281 C -3.636719 8.6875 -3.640625 10.234375 -3.488281 11.316406 C -3.246094 13.050781 -2.71875 13.640625 -1.421875 13.457031 C -0.988281 13.394531 1.1875 8.449219 5.046875 -1.816406 C 8.9375 -11.863281 13.417969 -23.980469 18.273438 -38.140625 C 27.550781 -64.855469 35.515625 -86.746094 42.390625 -103.839844 C 49.046875 -120.90625 53.273438 -130.117188 55.257812 -131.722656 C 56.433594 -132.769531 57.082031 -131.316406 57.382812 -127.601562 C 57.714844 -123.671875 57.726562 -114.171875 57.476562 -98.671875 C 57.175781 -88.246094 58.246094 -80.664062 60.277344 -75.648438 C 62.089844 -70.601562 65.117188 -67.933594 69.574219 -67.675781 C 73.191406 -67.082031 77.214844 -68.308594 81.617188 -71.578125 C 85.613281 -74.574219 91.753906 -81.179688 99.574219 -91.5625 C 103.699219 -96.78125 108.507812 -103.421875 114.03125 -111.269531 C 119.554688 -119.117188 126.195312 -128.449219 133.492188 -139.417969 C 139.386719 -147.757812 144.351562 -154.863281 148.542969 -161.199219 C 152.792969 -167.097656 156.488281 -172.257812 159.40625 -176.644531 C 164.929688 -184.492188 168.652344 -189.433594 170.945312 -191.96875 C 173.054688 -194.253906 174.449219 -195.332031 174.945312 -194.960938 C 175.222656 -194.558594 173.851562 -190.167969 171.109375 -181.386719 C 168.152344 -172.574219 164.511719 -162.339844 160.246094 -150.25 C 146.835938 -113.675781 137.210938 -83.160156 131.402344 -58.480469 C 125.597656 -33.800781 123.078125 -12.457031 123.625 5.582031 Z M 123.625 5.582031 "/></g></g></g><g fill="#ffffff" fill-opacity="1"><g transform="translate(67.373854, 263.84957)"><g><path d="M 123.625 5.582031 C 123.894531 10.625 124.195312 14.339844 124.71875 16.472656 C 125.023438 18.640625 125.609375 19.664062 126.476562 19.542969 C 127.992188 19.328125 129.605469 16.671875 131.503906 11.320312 C 133.1875 6.003906 136.273438 -5.035156 140.515625 -21.984375 C 143.886719 -35.714844 146.976562 -48.300781 150.15625 -60.234375 C 153.183594 -71.707031 156.550781 -83.890625 160.070312 -96.539062 C 162.035156 -103 164.152344 -109.925781 166.425781 -117.316406 C 168.484375 -124.675781 170.726562 -132.285156 173.3125 -140.601562 C 176.023438 -149.597656 178.425781 -157.667969 180.542969 -164.597656 C 182.660156 -171.523438 184.25 -177.492188 185.746094 -182.5625 C 188.148438 -192.179688 189.585938 -199.230469 189.84375 -203.683594 C 190.003906 -205.695312 189.976562 -207.460938 189.730469 -209.191406 C 189.519531 -210.710938 189.121094 -211.980469 188.535156 -213 C 186.652344 -215.386719 184.953125 -216.472656 183.21875 -216.230469 C 181.484375 -215.984375 178.386719 -214.445312 173.769531 -211.144531 C 168.132812 -207.257812 160.628906 -199.351562 151.199219 -187.863281 C 141.363281 -176.09375 127.589844 -157.808594 109.4375 -132.9375 C 98.667969 -118.386719 90.480469 -107.515625 84.617188 -100.503906 C 78.597656 -93.027344 75.3125 -89.691406 74.539062 -90.46875 C 73.796875 -91.027344 73.335938 -92.730469 73.128906 -95.792969 C 72.699219 -98.828125 72.800781 -102.816406 72.996094 -107.707031 C 73.582031 -120.824219 73.542969 -132.085938 72.882812 -141.492188 C 72.035156 -150.652344 70.625 -155.976562 69.050781 -157.746094 C 66.578125 -159.605469 63.824219 -160.324219 60.605469 -159.648438 C 57.417969 -158.757812 54.816406 -156.847656 52.582031 -153.878906 C 50.78125 -150.976562 48.453125 -147.113281 46.089844 -141.921875 C 43.511719 -136.695312 40.835938 -130.574219 37.851562 -123.527344 C 32.625 -110.421875 26.871094 -94.808594 20.984375 -76.96875 C 14.695312 -58.847656 9.089844 -40.605469 3.789062 -21.742188 C -0.386719 -7.457031 -2.574219 2.128906 -3.230469 6.863281 C -3.636719 8.6875 -3.640625 10.234375 -3.488281 11.316406 C -3.246094 13.050781 -2.71875 13.640625 -1.421875 13.457031 C -0.988281 13.394531 1.1875 8.449219 5.046875 -1.816406 C 8.9375 -11.863281 13.417969 -23.980469 18.273438 -38.140625 C 27.550781 -64.855469 35.515625 -86.746094 42.390625 -103.839844 C 49.046875 -120.90625 53.273438 -130.117188 55.257812 -131.722656 C 56.433594 -132.769531 57.082031 -131.316406 57.382812 -127.601562 C 57.714844 -123.671875 57.726562 -114.171875 57.476562 -98.671875 C 57.175781 -88.246094 58.246094 -80.664062 60.277344 -75.648438 C 62.089844 -70.601562 65.117188 -67.933594 69.574219 -67.675781 C 73.191406 -67.082031 77.214844 -68.308594 81.617188 -71.578125 C 85.613281 -74.574219 91.753906 -81.179688 99.574219 -91.5625 C 103.699219 -96.78125 108.507812 -103.421875 114.03125 -111.269531 C 119.554688 -119.117188 126.195312 -128.449219 133.492188 -139.417969 C 139.386719 -147.757812 144.351562 -154.863281 148.542969 -161.199219 C 152.792969 -167.097656 156.488281 -172.257812 159.40625 -176.644531 C 164.929688 -184.492188 168.652344 -189.433594 170.945312 -191.96875 C 173.054688 -194.253906 174.449219 -195.332031 174.945312 -194.960938 C 175.222656 -194.558594 173.851562 -190.167969 171.109375 -181.386719 C 168.152344 -172.574219 164.511719 -162.339844 160.246094 -150.25 C 146.835938 -113.675781 137.210938 -83.160156 131.402344 -58.480469 C 125.597656 -33.800781 123.078125 -12.457031 123.625 5.582031 Z M 123.625 5.582031 "/></g></g></g><g fill="#dc3c4d" fill-opacity="0.302"><g transform="translate(136.169554, 221.771624)"><g><path d="M 106.273438 -159.871094 C 105.503906 -159.992188 104.734375 -160.117188 104.152344 -160.253906 L 103.023438 -160.15625 C 102.648438 -160.121094 102.476562 -159.917969 102.097656 -159.882812 C 100.796875 -159.578125 99.339844 -158.882812 97.726562 -157.789062 C 95.941406 -156.496094 93.625 -154.773438 90.777344 -152.625 C 81.359375 -145.339844 71.417969 -135.355469 60.785156 -122.460938 C 50.152344 -109.570312 39.527344 -94.398438 28.914062 -76.949219 C 26.574219 -73.328125 24.703125 -70.886719 23.261719 -70 C 21.855469 -68.738281 19.457031 -67.957031 15.894531 -67.453125 C 10.859375 -66.441406 7.378906 -64.996094 5.265625 -63.101562 C 3.15625 -61.207031 2.945312 -59.289062 4.632812 -57.351562 C 5.265625 -56.648438 6.273438 -55.976562 7.46875 -55.324219 C 8.667969 -54.667969 10.019531 -54.410156 11.335938 -54.523438 C 12.46875 -54.625 13.613281 -54.535156 14.367188 -54.601562 C 15.121094 -54.667969 15.890625 -54.546875 16.644531 -54.613281 C 16.675781 -54.234375 15.933594 -51.890625 14.414062 -47.582031 C 12.914062 -43.085938 11.082031 -37.988281 8.910156 -32.484375 C 6.738281 -26.976562 5.078125 -22.085938 3.734375 -17.980469 C 2.214844 -13.671875 1.660156 -11.34375 1.691406 -10.96875 C 1.875 -8.894531 3.125 -9.765625 5.464844 -13.386719 C 7.617188 -16.992188 11.007812 -23.746094 15.4375 -33.816406 L 25.414062 -56.332031 C 33.035156 -58.140625 38.808594 -59.410156 42.699219 -60.511719 C 47.339844 -61.679688 51.796875 -62.828125 56.0625 -63.964844 C 60.140625 -65.082031 62.914062 -65.894531 64.199219 -66.386719 C 65.296875 -66.863281 66.222656 -67.136719 67.335938 -67.421875 C 68.464844 -67.523438 69.03125 -67.574219 69.425781 -67.417969 C 69.644531 -67.058594 69.125 -64.355469 67.859375 -59.308594 C 66.421875 -54.054688 64.695312 -47.832031 62.652344 -40.816406 C 58.074219 -25.988281 55.039062 -13.003906 53.332031 -2.226562 C 51.621094 8.554688 51.132812 18.089844 51.84375 26.1875 C 52.210938 30.332031 52.664062 33.328125 53.1875 34.992188 C 53.527344 36.667969 53.96875 37.390625 54.722656 37.324219 L 54.910156 37.308594 C 55.289062 37.273438 56.996094 32.949219 59.828125 24.15625 C 62.679688 15.554688 65.753906 5.222656 69.25 -6.851562 C 71.410156 -14.632812 73.882812 -23.203125 76.683594 -32.371094 C 79.292969 -41.523438 81.957031 -50.109375 84.480469 -58.113281 C 85.808594 -62.40625 87.15625 -66.511719 88.332031 -70.410156 C 89.523438 -74.121094 90.558594 -77.4375 91.457031 -80.175781 C 95.550781 -91.925781 99.019531 -102.101562 101.679688 -110.6875 C 104.359375 -119.082031 106.570312 -126.300781 108.335938 -132.148438 C 111.238281 -142.277344 112.542969 -149.035156 112.210938 -152.800781 C 112.195312 -152.988281 111.992188 -153.160156 111.972656 -153.351562 C 111.300781 -156.707031 109.386719 -159.007812 106.273438 -159.871094 Z M 45.917969 -90.785156 C 48.910156 -95.601562 52.296875 -100.265625 56.042969 -105.152344 C 59.617188 -109.832031 63.382812 -114.527344 67.160156 -119.039062 C 73.84375 -127.21875 80.265625 -134.046875 86.207031 -139.882812 C 92.160156 -145.53125 96.261719 -148.550781 98.867188 -149.160156 L 99.054688 -149.175781 C 99.429688 -149.210938 99.808594 -149.242188 100.199219 -149.085938 C 100.40625 -148.914062 100.628906 -148.554688 100.847656 -148.195312 L 100.867188 -148.007812 C 100.914062 -147.441406 99.378906 -143.320312 96.636719 -135.675781 C 93.90625 -127.84375 90.820312 -119.789062 87.59375 -111.15625 C 84.816406 -103.886719 82.160156 -97.390625 79.816406 -91.679688 C 77.488281 -85.78125 76.09375 -82.238281 75.421875 -81.230469 C 74.425781 -79.625 72.8125 -78.535156 70.414062 -77.753906 C 67.824219 -76.957031 62.789062 -75.945312 55.320312 -74.527344 C 50.472656 -73.53125 46.160156 -72.964844 42.390625 -72.632812 L 41.636719 -72.566406 C 38.246094 -72.265625 36.347656 -72.289062 36.109375 -72.839844 L 36.09375 -73.027344 C 35.855469 -73.574219 36.632812 -75.542969 38.4375 -78.738281 C 40.417969 -82.136719 42.910156 -86.152344 45.917969 -90.785156 Z M 45.917969 -90.785156 "/></g></g></g><g fill="#dc3c4d" fill-opacity="0.502"><g transform="translate(141.058032, 217.809046)"><g><path d="M 106.273438 -159.871094 C 105.503906 -159.992188 104.734375 -160.117188 104.152344 -160.253906 L 103.023438 -160.15625 C 102.648438 -160.121094 102.476562 -159.917969 102.097656 -159.882812 C 100.796875 -159.578125 99.339844 -158.882812 97.726562 -157.789062 C 95.941406 -156.496094 93.625 -154.773438 90.777344 -152.625 C 81.359375 -145.339844 71.417969 -135.355469 60.785156 -122.460938 C 50.152344 -109.570312 39.527344 -94.398438 28.914062 -76.949219 C 26.574219 -73.328125 24.703125 -70.886719 23.261719 -70 C 21.855469 -68.738281 19.457031 -67.957031 15.894531 -67.453125 C 10.859375 -66.441406 7.378906 -64.996094 5.265625 -63.101562 C 3.15625 -61.207031 2.945312 -59.289062 4.632812 -57.351562 C 5.265625 -56.648438 6.273438 -55.976562 7.46875 -55.324219 C 8.667969 -54.667969 10.019531 -54.410156 11.335938 -54.523438 C 12.46875 -54.625 13.613281 -54.535156 14.367188 -54.601562 C 15.121094 -54.667969 15.890625 -54.546875 16.644531 -54.613281 C 16.675781 -54.234375 15.933594 -51.890625 14.414062 -47.582031 C 12.914062 -43.085938 11.082031 -37.988281 8.910156 -32.484375 C 6.738281 -26.976562 5.078125 -22.085938 3.734375 -17.980469 C 2.214844 -13.671875 1.660156 -11.34375 1.691406 -10.96875 C 1.875 -8.894531 3.125 -9.765625 5.464844 -13.386719 C 7.617188 -16.992188 11.007812 -23.746094 15.4375 -33.816406 L 25.414062 -56.332031 C 33.035156 -58.140625 38.808594 -59.410156 42.699219 -60.511719 C 47.339844 -61.679688 51.796875 -62.828125 56.0625 -63.964844 C 60.140625 -65.082031 62.914062 -65.894531 64.199219 -66.386719 C 65.296875 -66.863281 66.222656 -67.136719 67.335938 -67.421875 C 68.464844 -67.523438 69.03125 -67.574219 69.425781 -67.417969 C 69.644531 -67.058594 69.125 -64.355469 67.859375 -59.308594 C 66.421875 -54.054688 64.695312 -47.832031 62.652344 -40.816406 C 58.074219 -25.988281 55.039062 -13.003906 53.332031 -2.226562 C 51.621094 8.554688 51.132812 18.089844 51.84375 26.1875 C 52.210938 30.332031 52.664062 33.328125 53.1875 34.992188 C 53.527344 36.667969 53.96875 37.390625 54.722656 37.324219 L 54.910156 37.308594 C 55.289062 37.273438 56.996094 32.949219 59.828125 24.15625 C 62.679688 15.554688 65.753906 5.222656 69.25 -6.851562 C 71.410156 -14.632812 73.882812 -23.203125 76.683594 -32.371094 C 79.292969 -41.523438 81.957031 -50.109375 84.480469 -58.113281 C 85.808594 -62.40625 87.15625 -66.511719 88.332031 -70.410156 C 89.523438 -74.121094 90.558594 -77.4375 91.457031 -80.175781 C 95.550781 -91.925781 99.019531 -102.101562 101.679688 -110.6875 C 104.359375 -119.082031 106.570312 -126.300781 108.335938 -132.148438 C 111.238281 -142.277344 112.542969 -149.035156 112.210938 -152.800781 C 112.195312 -152.988281 111.992188 -153.160156 111.972656 -153.351562 C 111.300781 -156.707031 109.386719 -159.007812 106.273438 -159.871094 Z M 45.917969 -90.785156 C 48.910156 -95.601562 52.296875 -100.265625 56.042969 -105.152344 C 59.617188 -109.832031 63.382812 -114.527344 67.160156 -119.039062 C 73.84375 -127.21875 80.265625 -134.046875 86.207031 -139.882812 C 92.160156 -145.53125 96.261719 -148.550781 98.867188 -149.160156 L 99.054688 -149.175781 C 99.429688 -149.210938 99.808594 -149.242188 100.199219 -149.085938 C 100.40625 -148.914062 100.628906 -148.554688 100.847656 -148.195312 L 100.867188 -148.007812 C 100.914062 -147.441406 99.378906 -143.320312 96.636719 -135.675781 C 93.90625 -127.84375 90.820312 -119.789062 87.59375 -111.15625 C 84.816406 -103.886719 82.160156 -97.390625 79.816406 -91.679688 C 77.488281 -85.78125 76.09375 -82.238281 75.421875 -81.230469 C 74.425781 -79.625 72.8125 -78.535156 70.414062 -77.753906 C 67.824219 -76.957031 62.789062 -75.945312 55.320312 -74.527344 C 50.472656 -73.53125 46.160156 -72.964844 42.390625 -72.632812 L 41.636719 -72.566406 C 38.246094 -72.265625 36.347656 -72.289062 36.109375 -72.839844 L 36.09375 -73.027344 C 35.855469 -73.574219 36.632812 -75.542969 38.4375 -78.738281 C 40.417969 -82.136719 42.910156 -86.152344 45.917969 -90.785156 Z M 45.917969 -90.785156 "/></g></g></g><g fill="#ffffff" fill-opacity="1"><g transform="translate(145.946508, 213.846459)"><g><path d="M 106.273438 -159.871094 C 105.503906 -159.992188 104.734375 -160.117188 104.152344 -160.253906 L 103.023438 -160.15625 C 102.648438 -160.121094 102.476562 -159.917969 102.097656 -159.882812 C 100.796875 -159.578125 99.339844 -158.882812 97.726562 -157.789062 C 95.941406 -156.496094 93.625 -154.773438 90.777344 -152.625 C 81.359375 -145.339844 71.417969 -135.355469 60.785156 -122.460938 C 50.152344 -109.570312 39.527344 -94.398438 28.914062 -76.949219 C 26.574219 -73.328125 24.703125 -70.886719 23.261719 -70 C 21.855469 -68.738281 19.457031 -67.957031 15.894531 -67.453125 C 10.859375 -66.441406 7.378906 -64.996094 5.265625 -63.101562 C 3.15625 -61.207031 2.945312 -59.289062 4.632812 -57.351562 C 5.265625 -56.648438 6.273438 -55.976562 7.46875 -55.324219 C 8.667969 -54.667969 10.019531 -54.410156 11.335938 -54.523438 C 12.46875 -54.625 13.613281 -54.535156 14.367188 -54.601562 C 15.121094 -54.667969 15.890625 -54.546875 16.644531 -54.613281 C 16.675781 -54.234375 15.933594 -51.890625 14.414062 -47.582031 C 12.914062 -43.085938 11.082031 -37.988281 8.910156 -32.484375 C 6.738281 -26.976562 5.078125 -22.085938 3.734375 -17.980469 C 2.214844 -13.671875 1.660156 -11.34375 1.691406 -10.96875 C 1.875 -8.894531 3.125 -9.765625 5.464844 -13.386719 C 7.617188 -16.992188 11.007812 -23.746094 15.4375 -33.816406 L 25.414062 -56.332031 C 33.035156 -58.140625 38.808594 -59.410156 42.699219 -60.511719 C 47.339844 -61.679688 51.796875 -62.828125 56.0625 -63.964844 C 60.140625 -65.082031 62.914062 -65.894531 64.199219 -66.386719 C 65.296875 -66.863281 66.222656 -67.136719 67.335938 -67.421875 C 68.464844 -67.523438 69.03125 -67.574219 69.425781 -67.417969 C 69.644531 -67.058594 69.125 -64.355469 67.859375 -59.308594 C 66.421875 -54.054688 64.695312 -47.832031 62.652344 -40.816406 C 58.074219 -25.988281 55.039062 -13.003906 53.332031 -2.226562 C 51.621094 8.554688 51.132812 18.089844 51.84375 26.1875 C 52.210938 30.332031 52.664062 33.328125 53.1875 34.992188 C 53.527344 36.667969 53.96875 37.390625 54.722656 37.324219 L 54.910156 37.308594 C 55.289062 37.273438 56.996094 32.949219 59.828125 24.15625 C 62.679688 15.554688 65.753906 5.222656 69.25 -6.851562 C 71.410156 -14.632812 73.882812 -23.203125 76.683594 -32.371094 C 79.292969 -41.523438 81.957031 -50.109375 84.480469 -58.113281 C 85.808594 -62.40625 87.15625 -66.511719 88.332031 -70.410156 C 89.523438 -74.121094 90.558594 -77.4375 91.457031 -80.175781 C 95.550781 -91.925781 99.019531 -102.101562 101.679688 -110.6875 C 104.359375 -119.082031 106.570312 -126.300781 108.335938 -132.148438 C 111.238281 -142.277344 112.542969 -149.035156 112.210938 -152.800781 C 112.195312 -152.988281 111.992188 -153.160156 111.972656 -153.351562 C 111.300781 -156.707031 109.386719 -159.007812 106.273438 -159.871094 Z M 45.917969 -90.785156 C 48.910156 -95.601562 52.296875 -100.265625 56.042969 -105.152344 C 59.617188 -109.832031 63.382812 -114.527344 67.160156 -119.039062 C 73.84375 -127.21875 80.265625 -134.046875 86.207031 -139.882812 C 92.160156 -145.53125 96.261719 -148.550781 98.867188 -149.160156 L 99.054688 -149.175781 C 99.429688 -149.210938 99.808594 -149.242188 100.199219 -149.085938 C 100.40625 -148.914062 100.628906 -148.554688 100.847656 -148.195312 L 100.867188 -148.007812 C 100.914062 -147.441406 99.378906 -143.320312 96.636719 -135.675781 C 93.90625 -127.84375 90.820312 -119.789062 87.59375 -111.15625 C 84.816406 -103.886719 82.160156 -97.390625 79.816406 -91.679688 C 77.488281 -85.78125 76.09375 -82.238281 75.421875 -81.230469 C 74.425781 -79.625 72.8125 -78.535156 70.414062 -77.753906 C 67.824219 -76.957031 62.789062 -75.945312 55.320312 -74.527344 C 50.472656 -73.53125 46.160156 -72.964844 42.390625 -72.632812 L 41.636719 -72.566406 C 38.246094 -72.265625 36.347656 -72.289062 36.109375 -72.839844 L 36.09375 -73.027344 C 35.855469 -73.574219 36.632812 -75.542969 38.4375 -78.738281 C 40.417969 -82.136719 42.910156 -86.152344 45.917969 -90.785156 Z M 45.917969 -90.785156 "/></g></g></g></svg>